<?xml version="1.0" encoding="utf-8"?>
<!-- Generator: Adobe Illustrator 21.0.0, SVG Export Plug-In . SVG Version: 6.00 Build 0)  -->
<svg version="1.1" id="Layer_1" xmlns="http://www.w3.org/2000/svg" xmlns:xlink="http://www.w3.org/1999/xlink" x="0px" y="0px"
	 viewBox="0 0 90 90" style="enable-background:new 0 0 90 90;" xml:space="preserve">
<style type="text/css">
	.st0{fill:#004675;}
</style>
<g>
	<path class="st0" d="M73.7,43.4L46.8,16.5c-1-1-2.6-1-3.6,0L16.3,43.4c-1,1-1,2.6,0,3.6s2.6,1,3.6,0l3.1-3.1h44l3.1,3.1
		c0.5,0.5,1.1,0.7,1.8,0.7c0.6,0,1.3-0.3,1.8-0.8C74.7,46,74.7,44.4,73.7,43.4z M28.1,38.7l7.2-7.2l7.2,7.2H28.1z M38.8,28l6.2-6.2
		l6.2,6.2L45,34.2L38.8,28z M47.6,38.7l7.2-7.2l7.2,7.2H47.6z"/>
	<path class="st0" d="M24,71.5c0,1.5,1.3,2.8,2.8,2.8h36.3c1.5,0,2.8-1.2,2.8-2.8V46.4H24V71.5z M46.9,54.5c0-1,0.8-1.8,1.8-1.8h4
		c1,0,1.8,0.8,1.8,1.8v9.1c0,1-0.8,1.8-1.8,1.8h-4c-1,0-1.8-0.8-1.8-1.8V54.5z M35.5,54.5c0-1,0.8-1.8,1.8-1.8h4
		c1,0,1.8,0.8,1.8,1.8v9c0,1-0.8,1.8-1.8,1.8h-4c-1,0-1.8-0.8-1.8-1.8V54.5z"/>
</g>
</svg>
